<?xml version="1.0" standalone="no"?>
<!DOCTYPE svg PUBLIC "-//W3C//DTD SVG 20010904//EN"
 "http://www.w3.org/TR/2001/REC-SVG-20010904/DTD/svg10.dtd">
<svg version="1.0" xmlns="http://www.w3.org/2000/svg"
 width="256.000000pt" height="256.000000pt" viewBox="0 0 256.000000 256.000000"
 preserveAspectRatio="xMidYMid meet">

<g transform="translate(0.000000,256.000000) scale(0.100000,-0.100000)"
fill="#000000" stroke="none">
<path d="M1050 2289 c-379 -39 -689 -178 -767 -344 l-23 -50 0 -615 0 -615 23
-50 c95 -202 524 -355 997 -355 475 0 902 152 997 355 l23 50 0 615 0 615 -23
50 c-113 241 -680 400 -1227 344z m551 -198 c220 -38 414 -115 484 -192 41
-46 38 -58 -22 -109 -87 -72 -292 -144 -497 -175 -137 -20 -435 -20 -572 0
-205 31 -410 103 -497 175 -60 51 -63 63 -22 109 85 94 342 182 618 211 123
13 375 3 508 -19z m-912 -591 c194 -65 361 -90 591 -90 287 0 570 59 771 160
31 16 59 26 63 23 3 -4 6 -75 6 -160 0 -179 -1 -182 -91 -242 -201 -134 -644
-204 -1000 -157 -244 33 -460 110 -550 198 l-39 38 0 158 c0 87 3 161 6 165 4
3 33 -8 66 -24 33 -17 113 -48 177 -69z m-150 -519 c103 -46 248 -92 371 -118
124 -26 616 -26 740 0 123 26 268 72 371 118 50 21 92 39 94 39 3 0 5 -72 5
-160 l0 -160 -35 -39 c-69 -76 -260 -152 -484 -193 -166 -30 -476 -30 -642 0
-224 41 -415 117 -484 193 l-35 39 0 160 c0 88 2 160 5 160 2 0 44 -18 94 -39z"/>
</g>
</svg>
