<?xml version="1.0" standalone="no"?>
<!DOCTYPE svg PUBLIC "-//W3C//DTD SVG 20010904//EN"
 "http://www.w3.org/TR/2001/REC-SVG-20010904/DTD/svg10.dtd">
<svg version="1.0" xmlns="http://www.w3.org/2000/svg"
 width="256.000000pt" height="256.000000pt" viewBox="0 0 256.000000 256.000000"
 preserveAspectRatio="xMidYMid meet">

<g transform="translate(0.000000,256.000000) scale(0.100000,-0.100000)"
fill="#000000" stroke="none">
<path d="M1075 2293 c-22 -2 -96 -13 -165 -24 -292 -48 -521 -157 -610 -290
l-35 -52 0 -647 0 -647 35 -52 c89 -133 311 -238 615 -292 111 -20 164 -23
365 -23 201 0 254 3 365 23 304 54 526 159 615 292 l35 52 0 647 0 647 -35 52
c-104 154 -388 272 -752 311 -91 9 -342 11 -433 3z m494 -199 c133 -20 297
-66 386 -109 88 -42 155 -98 155 -130 0 -48 -132 -130 -287 -179 -196 -61
-267 -70 -543 -70 -276 0 -347 9 -543 70 -155 49 -287 131 -287 179 0 32 67
88 155 130 239 115 629 159 964 109z m-1052 -530 c245 -109 467 -154 763 -154
270 0 478 38 694 126 61 25 118 48 126 50 13 4 15 -17 13 -157 l-2 -162 -37
-38 c-70 -72 -259 -145 -479 -185 -142 -26 -488 -26 -630 0 -220 40 -409 113
-479 185 l-37 38 -2 161 c-1 89 1 162 5 162 4 0 33 -12 65 -26z m158 -639
c220 -76 494 -107 762 -87 227 17 416 64 601 148 39 18 72 30 72 26 1 -4 1
-79 0 -167 l0 -160 -42 -38 c-83 -75 -277 -146 -499 -182 -142 -23 -436 -23
-578 0 -222 36 -416 107 -499 182 l-42 38 0 160 c-1 88 -1 163 0 167 0 4 33
-8 73 -26 39 -18 108 -45 152 -61z"/>
</g>
</svg>
